<svg xmlns="http://www.w3.org/2000/svg" width="520" height="300" viewBox="0 0 520 300">
  <defs>
    <linearGradient id="bg" x1="0" y1="0" x2="1" y2="1">
      <stop offset="0" stop-color="#0b0b0d"/>
      <stop offset="1" stop-color="#1a1a20"/>
    </linearGradient>
    <linearGradient id="card" x1="0" y1="0" x2="1" y2="1">
      <stop offset="0" stop-color="#111113"/>
      <stop offset="1" stop-color="#1c1c22"/>
    </linearGradient>
  </defs>
  <rect width="520" height="300" rx="24" fill="url(#bg)"/>
  <rect x="24" y="24" width="140" height="252" rx="16" fill="#121216" stroke="#2a2a35" stroke-width="1"/>
  <rect x="42" y="50" width="90" height="10" rx="5" fill="#e5e7eb"/>
  <rect x="42" y="80" width="100" height="10" rx="5" fill="#2a2a35"/>
  <rect x="42" y="102" width="86" height="10" rx="5" fill="#2a2a35"/>
  <rect x="42" y="124" width="96" height="10" rx="5" fill="#2a2a35"/>
  <rect x="182" y="36" width="314" height="40" rx="12" fill="#121216" stroke="#2a2a35" stroke-width="1"/>
  <rect x="204" y="50" width="140" height="12" rx="6" fill="#1e1e26"/>
  <rect x="182" y="90" width="314" height="186" rx="16" fill="url(#card)" stroke="#2a2a35" stroke-width="1"/>
  <rect x="204" y="112" width="180" height="10" rx="5" fill="#252531"/>
  <rect x="204" y="132" width="140" height="10" rx="5" fill="#252531"/>
  <rect x="204" y="160" width="252" height="86" rx="12" fill="#14141a" stroke="#2a2a35" stroke-width="1"/>
  <rect x="214" y="172" width="160" height="10" rx="5" fill="#3a3a48"/>
  <rect x="214" y="190" width="120" height="10" rx="5" fill="#3a3a48"/>
  <rect x="214" y="208" width="180" height="10" rx="5" fill="#3a3a48"/>
</svg>
