<svg xmlns="http://www.w3.org/2000/svg" width="520" height="300" viewBox="0 0 520 300">
  <defs>
    <linearGradient id="bg" x1="0" y1="0" x2="1" y2="1">
      <stop offset="0" stop-color="#f8f6fb"/>
      <stop offset="1" stop-color="#efe8ff"/>
    </linearGradient>
    <linearGradient id="card" x1="0" y1="0" x2="1" y2="1">
      <stop offset="0" stop-color="#ffffff"/>
      <stop offset="1" stop-color="#f7f4ff"/>
    </linearGradient>
  </defs>
  <rect width="520" height="300" rx="24" fill="url(#bg)"/>
  <rect x="24" y="24" width="140" height="252" rx="16" fill="#1c1f2a" stroke="#2e3344" stroke-width="1"/>
  <circle cx="52" cy="52" r="10" fill="#f97316"/>
  <rect x="42" y="82" width="90" height="10" rx="5" fill="#2d3145"/>
  <rect x="42" y="104" width="100" height="10" rx="5" fill="#2d3145"/>
  <rect x="42" y="126" width="86" height="10" rx="5" fill="#2d3145"/>
  <rect x="182" y="36" width="314" height="40" rx="12" fill="#ffffff" stroke="#e4e1ef" stroke-width="1"/>
  <rect x="204" y="50" width="140" height="12" rx="6" fill="#f2edf9"/>
  <rect x="182" y="90" width="314" height="186" rx="16" fill="url(#card)" stroke="#e1dbee" stroke-width="1"/>
  <rect x="204" y="112" width="180" height="10" rx="5" fill="#eae5f7"/>
  <rect x="204" y="132" width="140" height="10" rx="5" fill="#eae5f7"/>
  <rect x="204" y="160" width="252" height="86" rx="12" fill="#fff7f1" stroke="#f3d7c5" stroke-width="1"/>
  <rect x="214" y="172" width="160" height="10" rx="5" fill="#f4b081"/>
  <rect x="214" y="190" width="120" height="10" rx="5" fill="#f4b081"/>
  <rect x="214" y="208" width="180" height="10" rx="5" fill="#f4b081"/>
</svg>
