<svg xmlns="http://www.w3.org/2000/svg" width="520" height="300" viewBox="0 0 520 300">
  <defs>
    <linearGradient id="bg" x1="0" y1="0" x2="1" y2="1">
      <stop offset="0" stop-color="#f6f3ff"/>
      <stop offset="1" stop-color="#e9e2ff"/>
    </linearGradient>
    <linearGradient id="card" x1="0" y1="0" x2="1" y2="1">
      <stop offset="0" stop-color="#ffffff"/>
      <stop offset="1" stop-color="#f4f0ff"/>
    </linearGradient>
  </defs>
  <rect width="520" height="300" rx="24" fill="url(#bg)"/>
  <rect x="24" y="24" width="140" height="252" rx="16" fill="#232238" stroke="#3a3756" stroke-width="1"/>
  <rect x="42" y="50" width="90" height="10" rx="5" fill="#8b5cf6"/>
  <rect x="42" y="80" width="100" height="10" rx="5" fill="#3a3756"/>
  <rect x="42" y="102" width="86" height="10" rx="5" fill="#3a3756"/>
  <rect x="42" y="124" width="96" height="10" rx="5" fill="#3a3756"/>
  <rect x="182" y="36" width="314" height="40" rx="12" fill="#ffffff" stroke="#dcd4f2" stroke-width="1"/>
  <rect x="204" y="50" width="140" height="12" rx="6" fill="#efe9ff"/>
  <rect x="182" y="90" width="314" height="186" rx="16" fill="url(#card)" stroke="#ddd4f1" stroke-width="1"/>
  <rect x="204" y="112" width="180" height="10" rx="5" fill="#ece6ff"/>
  <rect x="204" y="132" width="140" height="10" rx="5" fill="#ece6ff"/>
  <rect x="204" y="160" width="252" height="86" rx="12" fill="#eef7ff" stroke="#c8dcff" stroke-width="1"/>
  <rect x="214" y="172" width="160" height="10" rx="5" fill="#8b5cf6"/>
  <rect x="214" y="190" width="120" height="10" rx="5" fill="#8b5cf6"/>
  <rect x="214" y="208" width="180" height="10" rx="5" fill="#8b5cf6"/>
</svg>
